<svg xmlns="http://www.w3.org/2000/svg" viewBox="0 0 200 200"><defs><radialGradient id="hg" cx="40%" cy="35%" r="60%"><stop offset="0%" stop-color="white" stop-opacity="0.15"/><stop offset="100%" stop-color="black" stop-opacity="0.3"/></radialGradient></defs><circle cx="100" cy="100" r="100" fill="#2d4a1e"/><circle cx="100" cy="100" r="96" fill="#3a5c27"/><ellipse cx="100" cy="108" rx="46" ry="52" fill="#5a8a3a"/><ellipse cx="54" cy="98" rx="10" ry="16" fill="#5a8a3a" transform="rotate(-20 54 98)"/><ellipse cx="54" cy="98" rx="6" ry="11" fill="#7ab050" transform="rotate(-20 54 98)"/><ellipse cx="146" cy="98" rx="10" ry="16" fill="#5a8a3a" transform="rotate(20 146 98)"/><ellipse cx="146" cy="98" rx="6" ry="11" fill="#7ab050" transform="rotate(20 146 98)"/><ellipse cx="100" cy="108" rx="46" ry="52" fill="url(#hg)" opacity="0.4"/><ellipse cx="100" cy="82" rx="38" ry="10" fill="#4a7530"/><ellipse cx="84" cy="96" rx="11" ry="9" fill="#1a1a1a"/><ellipse cx="116" cy="96" rx="11" ry="9" fill="#1a1a1a"/><ellipse cx="84" cy="96" rx="7" ry="7" fill="#d4a000"/><ellipse cx="116" cy="96" rx="7" ry="7" fill="#d4a000"/><ellipse cx="84" cy="97" rx="3.5" ry="5" fill="#111"/><ellipse cx="116" cy="97" rx="3.5" ry="5" fill="#111"/><circle cx="87" cy="93" r="2" fill="white" opacity="0.7"/><circle cx="119" cy="93" r="2" fill="white" opacity="0.7"/><path d="M73 87 Q84 80 95 87" stroke="#2d4018" stroke-width="4" fill="none" stroke-linecap="round"/><path d="M127 87 Q116 80 105 87" stroke="#2d4018" stroke-width="4" fill="none" stroke-linecap="round"/><ellipse cx="100" cy="112" rx="9" ry="7" fill="#4a7530"/><circle cx="95" cy="113" r="3.5" fill="#2e4e1e"/><circle cx="105" cy="113" r="3.5" fill="#2e4e1e"/><path d="M78 130 Q100 148 122 130" stroke="#1a1a1a" stroke-width="2.5" fill="#1a1a1a"/><path d="M82 130 L78 130 Q80 140 84 138 Z" fill="ivory"/><path d="M89 133 L85 132 Q86 142 90 141 Z" fill="ivory"/><path d="M111 133 L115 132 Q114 142 110 141 Z" fill="ivory"/><path d="M118 130 L122 130 Q120 140 116 138 Z" fill="ivory"/><path d="M94 135 L91 136 L93 148 L96 135 Z" fill="ivory"/><path d="M106 135 L109 136 L107 148 L104 135 Z" fill="ivory"/></svg>